PathFileType	4	(X/Y/Z)	C:\Users\chris\Documents\GitHub\baseballds\vids\pitch5_Sports2D\pitch5_Sports2D_m_person06.trc
DataRate	CameraRate	NumFrames	NumMarkers	Units	OrigDataRate	OrigDataStartFrame	OrigNumFrames
30	30	11	22	m	30	93	149
Frame#	Time	Hip			RHip			RKnee			RAnkle			RBigToe			RSmallToe			RHeel			LHip			LKnee			LAnkle			LBigToe			LSmallToe			LHeel			Neck			Head			Nose			RShoulder			RElbow			RWrist			LShoulder			LElbow			LWrist		
		X1	Y1	Z1	X2	Y2	Z2	X3	Y3	Z3	X4	Y4	Z4	X5	Y5	Z5	X6	Y6	Z6	X7	Y7	Z7	X8	Y8	Z8	X9	Y9	Z9	X10	Y10	Z10	X11	Y11	Z11	X12	Y12	Z12	X13	Y13	Z13	X14	Y14	Z14	X15	Y15	Z15	X16	Y16	Z16	X17	Y17	Z17	X18	Y18	Z18	X19	Y19	Z19	X20	Y20	Z20	X21	Y21	Z21	X22	Y22	Z22
93	3.1	2.405520083890949	1.0617927151151285	0.0	2.3927568256921696	1.0644000860372111	0.0	2.392194968476026	0.8557642041291195	0.0	2.325775396039337	0.6633089164535321	0.0	2.4047292757640193	0.6230968011631094	0.0	2.38797902456465	0.6147549310295238	0.0	2.300143710030073	0.6292414607243174	0.0	2.4211077204923694	1.0663896187471842	0.0	2.475551979096101	0.8687866284097173	0.0	2.526689354550602	0.6650246246876081	0.0	2.6213628873101147	0.634872506930811	0.0	2.6135762277109538	0.639689894064821	0.0	2.5180857245945596	0.631967792313896	0.0	2.4140281350552595	1.3733794282002147	0.0	2.4219508727147847	1.516000355085015	0.0	2.474305415451986	1.4376868668089804	0.0	2.3981473464953464	1.3249139552180431	0.0	2.4449322175389687	1.196546702129984	0.0	2.547951232767417	1.256373035043434	0.0	2.424883887977835	1.3322928878123113	0.0	2.497582714156249	1.218904905668469	0.0	2.5883733477687034	1.25173631470587	0.0
94	3.1333333333333333	2.4135151731070534	1.0615056711056752	0.0	2.4046209205302618	1.0648334317419617	0.0	2.402103937792574	0.8540360977939644	0.0	2.32744977707971	0.6621505098577174	0.0	2.404452617742065	0.6218547387610928	0.0	2.38870044208697	0.6140486546011249	0.0	2.3014392204221736	0.6290108377868243	0.0	2.425928717205398	1.0663069608282962	0.0	2.477549749817152	0.8644676349083363	0.0	2.5292289561368797	0.6586520345398139	0.0	2.618846594013857	0.6334048886943684	0.0	2.6111698593183896	0.6365089274690298	0.0	2.521971615366998	0.625890012346195	0.0	2.421286070468575	1.3694890975342708	0.0	2.430816974147245	1.5113393832029534	0.0	2.4825012344032147	1.4324821501041094	0.0	2.4123626056856895	1.3235197717027578	0.0	2.4647159420764484	1.1965974145236813	0.0	2.560227809993245	1.2567124702445431	0.0	2.4216123520689745	1.3296585757349735	0.0	2.500346392281684	1.2048300361762367	0.0	2.600823529777991	1.2194225148281235	0.0
95	3.1666666666666665	2.424147952278403	1.0599733367747444	0.0	2.418825590940506	1.0638738460413228	0.0	2.412589477609472	0.8519573968291607	0.0	2.3288366732350343	0.6608058402468717	0.0	2.4050907994657225	0.6205322300500093	0.0	2.388600271659544	0.6131731019874423	0.0	2.3020017074207235	0.6285043430136242	0.0	2.43359047064537	1.0648588134161971	0.0	2.481928342907343	0.8608536399386298	0.0	2.5328667747802927	0.6519236845827601	0.0	2.6161655150178884	0.6301889869420932	0.0	2.608316260332196	0.6325995905465637	0.0	2.524720196759929	0.6198958988772139	0.0	2.428819599934028	1.3658234379625656	0.0	2.440345693928352	1.5065467406199076	0.0	2.4910645503482463	1.427189608346813	0.0	2.4257357030612656	1.3217987797316981	0.0	2.4837518183708185	1.1978052847277638	0.0	2.569846319856596	1.25876536879026	0.0	2.4177357312387033	1.326289413477128	0.0	2.49637678650055	1.1858202854967552	0.0	2.603287270135889	1.171676361437667	0.0
96	3.2	2.435775486717499	1.0575872405385955	0.0	2.4336908315269308	1.0620181414587677	0.0	2.423106044928472	0.8489062395295928	0.0	2.3293909241541955	0.6604952451133823	0.0	2.4047421095836583	0.6188825145425714	0.0	2.387086892973556	0.6127919233439943	0.0	2.301682514323904	0.6294239021939644	0.0	2.442845021466908	1.0625896107001884	0.0	2.4890134094934915	0.8577181636438579	0.0	2.537614282571975	0.6470537853829772	0.0	2.614668944364868	0.625179465504528	0.0	2.6070617046962545	0.6278735284625953	0.0	2.527203800035837	0.6162268732946202	0.0	2.4371946046097923	1.3624851569358374	0.0	2.4492971972892517	1.501915021491706	0.0	2.499485773937883	1.423566001493754	0.0	2.4384489387504944	1.3195192601918653	0.0	2.502939415700832	1.2003564549645243	0.0	2.5790962298027074	1.2648704364752876	0.0	2.4177924873391055	1.3224258537068838	0.0	2.4860198509031326	1.1706862447222266	0.0	2.594085075224122	1.1205650182671107	0.0
97	3.2333333333333334	2.4468355227629655	1.0563711649744942	0.0	2.4472611125136554	1.0606514502759699	0.0	2.434624553147765	0.8456598671339484	0.0	2.3307944576965607	0.6623140341931035	0.0	2.403086792625462	0.6171285204648337	0.0	2.385650903571012	0.6129641316715464	0.0	2.3020922578544365	0.633064470606049	0.0	2.4521923723322177	1.0610674270022624	0.0	2.4984091849318366	0.8550383669498651	0.0	2.541440418040629	0.6451548468440325	0.0	2.6140223902877757	0.6198792324463196	0.0	2.6071824693234293	0.6235432127031167	0.0	2.5294648701271476	0.615723397353312	0.0	2.4466922991537614	1.35979274206586	0.0	2.457405344618034	1.4981437726350726	0.0	2.5077511313784493	1.4217707205735015	0.0	2.4515685913040044	1.3175584748725773	0.0	2.5219563716601336	1.2023953952453659	0.0	2.5893241416723223	1.2722183915909908	0.0	2.4217713769868143	1.3195978018385064	0.0	2.4760374097397095	1.1688686244118	0.0	2.582052970398192	1.1005137513005803	0.0
98	3.2666666666666666	2.4577623996024798	1.0569436007506852	0.0	2.4586868675085394	1.059762457159503	0.0	2.4496133318530946	0.8436870862059298	0.0	2.3350860312314783	0.6666849384164127	0.0	2.4022485497861767	0.6155078130817034	0.0	2.3853730565050344	0.6128239907602133	0.0	2.3048167149294034	0.6403424480786915	0.0	2.462744942888426	1.0605180718994847	0.0	2.5090438787977845	0.8531546741813474	0.0	2.5432623170373128	0.6452133781500771	0.0	2.6148873652598494	0.616102760386632	0.0	2.6079764442224347	0.621195458440349	0.0	2.5301906836495993	0.6165876568979375	0.0	2.4574910057718777	1.3589251525014594	0.0	2.4657829677988707	1.4964099726119353	0.0	2.5167484270180402	1.4221194188722512	0.0	2.465071277906763	1.317176613468833	0.0	2.538984962433108	1.2035601157611895	0.0	2.601889933314505	1.277274085948658	0.0	2.4292235877096826	1.3193041014459985	0.0	2.4831051611541914	1.1807070905875225	0.0	2.5808453901656008	1.1429199919395168	0.0
99	3.3	2.46870634421363	1.0580572472800212	0.0	2.4684230944404675	1.0589063168017476	0.0	2.4699168436104784	0.8433458706348619	0.0	2.3428597783506304	0.6735456046781156	0.0	2.4044577455943914	0.6138997636857223	0.0	2.3863433940987546	0.6122258857920435	0.0	2.310490535462023	0.6519176081501613	0.0	2.474119905301405	1.0604223598357674	0.0	2.5195723157612644	0.852321358295636	0.0	2.543903441777936	0.6455750526701921	0.0	2.617313581262389	0.6141350565061376	0.0	2.609045528157123	0.6202832003553214	0.0	2.5289938383862087	0.6167023740082171	0.0	2.4690695087322436	1.3606264943441577	0.0	2.475648415911643	1.496864945562052	0.0	2.5269575354413143	1.4243368666056848	0.0	2.478267387076027	1.318772105053086	0.0	2.5527213412857317	1.2050040990287667	0.0	2.6162069862558788	1.2789928757937903	0.0	2.438960947224352	1.3212108389986346	0.0	2.5012680665069764	1.1945754118167553	0.0	2.5774405860660545	1.2068526803542636	0.0
100	3.3333333333333335	2.478018532035985	1.0592190313889145	0.0	2.476984336420719	1.0589024041055277	0.0	2.4947960168738725	0.8442620005602715	0.0	2.3535673993067365	0.682859593084317	0.0	2.410863050665049	0.6128646085602167	0.0	2.390263494404508	0.6125031913014398	0.0	2.31942930785425	0.6666361076737221	0.0	2.4820114048770106	1.0615415463741331	0.0	2.529354847731744	0.8526612469380819	0.0	2.544359067110106	0.6456229241930566	0.0	2.61966568878793	0.6127934022249236	0.0	2.6099033672284024	0.619049104237165	0.0	2.527586720624239	0.6156545432087475	0.0	2.4795889381403997	1.3631842321507337	0.0	2.4871386719134354	1.4980411130281592	0.0	2.5378162037666985	1.42554366708457	0.0	2.4906987413623853	1.3211880117828914	0.0	2.5636181669339733	1.2065278686574552	0.0	2.6291080625199017	1.2789833133735113	0.0	2.447263350563268	1.3232519915026557	0.0	2.495365834617484	1.1977656369693757	0.0	2.535629802156401	1.2037415859248444	0.0
101	3.3666666666666667	2.484948579457277	1.0606579169453159	0.0	2.4849127726936167	1.0604082867892541	0.0	2.521771606858844	0.8464757761737786	0.0	2.3670440355427984	0.6940969917707495	0.0	2.4214775802411808	0.6139216025947345	0.0	2.3993759801553662	0.6152736013635296	0.0	2.3321641059200133	0.6817387592244998	0.0	2.4834137404673386	1.0644942880367165	0.0	2.537713795680703	0.8539215759578687	0.0	2.5448891125306874	0.6450987212867844	0.0	2.6214630570896853	0.6111278370058777	0.0	2.6103347619614046	0.6173002641987438	0.0	2.5275609012162006	0.6140428556757455	0.0	2.4881642824605454	1.3639197932157205	0.0	2.4995185118983505	1.4981571065182644	0.0	2.5486794828775685	1.4236555947361924	0.0	2.5016778638225325	1.3227534732773039	0.0	2.572847198474154	1.2075149275493053	0.0	2.6385444919938745	1.2796558817290131	0.0	2.4520690934714384	1.3236821738305677	0.0	2.4571797087913096	1.1909615086246659	0.0	2.4564403017090264	1.129032415773888	0.0
102	3.4	2.49122412212211	1.061868831088218	0.0	2.4933345979884693	1.0627222458534713	0.0	2.5481165371894408	0.8500164068333722	0.0	2.384461925799983	0.7049796216764807	0.0	2.4347424945428315	0.6171771253859354	0.0	2.4132555858393867	0.6205550744638835	0.0	2.349098063302251	0.6948374934458449	0.0	2.481183053569956	1.0679707176389464	0.0	2.542146660720308	0.8553387948710351	0.0	2.545502732647512	0.64351908519339	0.0	2.6238805513253642	0.60967744074954	0.0	2.610546598462863	0.6162880490610098	0.0	2.5290687352070114	0.612507546726619	0.0	2.4963706916465354	1.3625878399836298	0.0	2.511925948980378	1.4974275641212718	0.0	2.5593063710617985	1.4210392592758831	0.0	2.5110533211134443	1.322953739033773	0.0	2.5805015036824646	1.208151045831586	0.0	2.6445393207599857	1.2804714511985336	0.0	2.4556553064606166	1.3228086588560546	0.0	2.4201306325294696	1.1857324466156542	0.0	2.3864982468630322	1.0659519729060394	0.0
103	3.433333333333333	2.4983994771128204	1.0622793230392946	0.0	2.5028514230170593	1.0648411225464574	0.0	2.571554077144533	0.8540218981490723	0.0	2.406705973579433	0.7118382948838484	0.0	2.4499116494554634	0.6197344323513285	0.0	2.43143958218772	0.6258804683041745	0.0	2.369956209839808	0.7034314142572805	0.0	2.480428975964888	1.0702230188150068	0.0	2.5409908496668816	0.8561047553960404	0.0	2.545844160258609	0.6415088533900558	0.0	2.626498024563292	0.6094375155701389	0.0	2.610417335033135	0.6164555886735185	0.0	2.5314681861258723	0.6114292836490753	0.0	2.505286471757373	1.3613048323809946	0.0	2.523503139160015	1.4974870524996136	0.0	2.569098443741368	1.4205981713719058	0.0	2.5200529439288197	1.3227555367401298	0.0	2.5859875809112713	1.2076770360934146	0.0	2.648354657306839	1.2793790541059877	0.0	2.4605073592492217	1.322308927279513	0.0	2.4059688793612177	1.1885418822596583	0.0	2.352312595647329	1.0573360487142665	0.0
